<?xml version="1.0" encoding="UTF-8" standalone="no"?>
<!-- Created with Inkscape (http://www.inkscape.org/) -->

<svg
   xmlns:osb="http://www.openswatchbook.org/uri/2009/osb"
   xmlns:dc="http://purl.org/dc/elements/1.1/"
   xmlns:cc="http://creativecommons.org/ns#"
   xmlns:rdf="http://www.w3.org/1999/02/22-rdf-syntax-ns#"
   xmlns:svg="http://www.w3.org/2000/svg"
   xmlns="http://www.w3.org/2000/svg"
   xmlns:xlink="http://www.w3.org/1999/xlink"
   xmlns:sodipodi="http://sodipodi.sourceforge.net/DTD/sodipodi-0.dtd"
   xmlns:inkscape="http://www.inkscape.org/namespaces/inkscape"
   width="50mm"
   height="38mm"
   viewBox="0 0 50 38"
   version="1.1"
   id="svg8"
   inkscape:version="0.92.3 (2405546, 2018-03-11)"
   sodipodi:docname="2d_cap.svg">
  <defs
     id="defs2">
    <pattern
       inkscape:collect="always"
       xlink:href="#pattern6907"
       id="pattern8334"
       patternTransform="matrix(0.19159237,0.19159237,-6.8411163,6.8411163,-19.104375,181.44579)" />
    <marker
       inkscape:stockid="Arrow2Mend"
       orient="auto"
       refY="0"
       refX="0"
       id="marker7717"
       style="overflow:visible"
       inkscape:isstock="true">
      <path
         id="path7715"
         style="fill:#000000;fill-opacity:1;fill-rule:evenodd;stroke:#000000;stroke-width:0.625;stroke-linejoin:round;stroke-opacity:1"
         d="M 8.7185878,4.0337352 -2.2072895,0.01601326 8.7185884,-4.0017078 c -1.7454984,2.3720609 -1.7354408,5.6174519 -6e-7,8.035443 z"
         transform="scale(-0.6)"
         inkscape:connector-curvature="0" />
    </marker>
    <marker
       inkscape:isstock="true"
       style="overflow:visible"
       id="marker7009"
       refX="0"
       refY="0"
       orient="auto"
       inkscape:stockid="Arrow2Mend"
       inkscape:collect="always">
      <path
         inkscape:connector-curvature="0"
         transform="scale(-0.6)"
         d="M 8.7185878,4.0337352 -2.2072895,0.01601326 8.7185884,-4.0017078 c -1.7454984,2.3720609 -1.7354408,5.6174519 -6e-7,8.035443 z"
         style="fill:#000000;fill-opacity:1;fill-rule:evenodd;stroke:#000000;stroke-width:0.625;stroke-linejoin:round;stroke-opacity:1"
         id="path7007" />
    </marker>
    <pattern
       inkscape:collect="always"
       xlink:href="#pattern6184"
       id="pattern6907"
       patternTransform="matrix(0.19159237,0.19159237,-6.8411163,6.8411163,-20.162706,192.03361)" />
    <marker
       inkscape:stockid="Arrow2Mend"
       orient="auto"
       refY="0"
       refX="0"
       id="marker6635"
       style="overflow:visible"
       inkscape:isstock="true">
      <path
         inkscape:connector-curvature="0"
         id="path6633"
         style="fill:#000000;fill-opacity:1;fill-rule:evenodd;stroke:#000000;stroke-width:0.625;stroke-linejoin:round;stroke-opacity:1"
         d="M 8.7185878,4.0337352 -2.2072895,0.01601326 8.7185884,-4.0017078 c -1.7454984,2.3720609 -1.7354408,5.6174519 -6e-7,8.035443 z"
         transform="scale(-0.6)" />
    </marker>
    <pattern
       inkscape:collect="always"
       xlink:href="#pattern6184"
       id="pattern6188"
       patternTransform="matrix(0.19159237,-0.19159237,6.8411162,6.8411162,15.400202,-181.44579)" />
    <pattern
       inkscape:collect="always"
       xlink:href="#Strips1_5"
       id="pattern6184"
       patternTransform="matrix(0.19159237,0.19159237,-6.8411163,6.8411163,-20.162706,212.03361)" />
    <pattern
       inkscape:stockid="Stripes 1:5"
       id="Strips1_5"
       patternTransform="translate(0,0) scale(10,10)"
       height="1"
       width="6"
       patternUnits="userSpaceOnUse"
       inkscape:collect="always">
      <rect
         id="rect5465"
         height="2"
         width="1"
         y="-0.5"
         x="0"
         style="fill:black;stroke:none" />
    </pattern>
    <linearGradient
       id="linearGradient6156"
       osb:paint="solid">
      <stop
         style="stop-color:#ffffff;stop-opacity:1;"
         offset="0"
         id="stop6154" />
    </linearGradient>
    <marker
       inkscape:isstock="true"
       style="overflow:visible"
       id="marker3606"
       refX="0"
       refY="0"
       orient="auto"
       inkscape:stockid="Arrow2Mend"
       inkscape:collect="always">
      <path
         transform="scale(-0.6)"
         d="M 8.7185878,4.0337352 -2.2072895,0.01601326 8.7185884,-4.0017078 c -1.7454984,2.3720609 -1.7354408,5.6174519 -6e-7,8.035443 z"
         style="fill:#000000;fill-opacity:1;fill-rule:evenodd;stroke:#000000;stroke-width:0.625;stroke-linejoin:round;stroke-opacity:1"
         id="path3604"
         inkscape:connector-curvature="0" />
    </marker>
    <marker
       inkscape:stockid="Arrow2Mend"
       orient="auto"
       refY="0"
       refX="0"
       id="marker3474"
       style="overflow:visible"
       inkscape:isstock="true"
       inkscape:collect="always">
      <path
         id="path902"
         style="fill:#000000;fill-opacity:1;fill-rule:evenodd;stroke:#000000;stroke-width:0.625;stroke-linejoin:round;stroke-opacity:1"
         d="M 8.7185878,4.0337352 -2.2072895,0.01601326 8.7185884,-4.0017078 c -1.7454984,2.3720609 -1.7354408,5.6174519 -6e-7,8.035443 z"
         transform="scale(-0.6)"
         inkscape:connector-curvature="0" />
    </marker>
    <marker
       inkscape:stockid="Arrow2Mend"
       orient="auto"
       refY="0"
       refX="0"
       id="marker6552"
       style="overflow:visible"
       inkscape:isstock="true">
      <path
         id="path6550"
         style="fill:#161616;fill-opacity:1;fill-rule:evenodd;stroke:#161616;stroke-width:0.625;stroke-linejoin:round;stroke-opacity:1"
         d="M 8.7185878,4.0337352 -2.2072895,0.01601326 8.7185884,-4.0017078 c -1.7454984,2.3720609 -1.7354408,5.6174519 -6e-7,8.035443 z"
         transform="scale(-0.6)"
         inkscape:connector-curvature="0" />
    </marker>
    <marker
       inkscape:stockid="Arrow2Mend"
       orient="auto"
       refY="0"
       refX="0"
       id="marker6482"
       style="overflow:visible"
       inkscape:isstock="true">
      <path
         id="path1179"
         style="fill:#ffffff;fill-opacity:1;fill-rule:evenodd;stroke:#161616;stroke-width:0.625;stroke-linejoin:round;stroke-opacity:1"
         d="M 8.7185878,4.0337352 -2.2072895,0.01601326 8.7185884,-4.0017078 c -1.7454984,2.3720609 -1.7354408,5.6174519 -6e-7,8.035443 z"
         transform="scale(-0.6)"
         inkscape:connector-curvature="0" />
    </marker>
    <marker
       inkscape:isstock="true"
       style="overflow:visible"
       id="marker6383"
       refX="0"
       refY="0"
       orient="auto"
       inkscape:stockid="Arrow2Mend">
      <path
         inkscape:connector-curvature="0"
         transform="scale(-0.6)"
         d="M 8.7185878,4.0337352 -2.2072895,0.01601326 8.7185884,-4.0017078 c -1.7454984,2.3720609 -1.7354408,5.6174519 -6e-7,8.035443 z"
         style="fill:#ffffff;fill-opacity:1;fill-rule:evenodd;stroke:#161616;stroke-width:0.625;stroke-linejoin:round;stroke-opacity:1"
         id="path6381" />
    </marker>
    <marker
       inkscape:stockid="Arrow1Mend"
       orient="auto"
       refY="0"
       refX="0"
       id="marker4509"
       style="overflow:visible"
       inkscape:isstock="true">
      <path
         id="path4507"
         d="M 0,0 5,-5 -12.5,0 5,5 Z"
         style="fill:#ffffff;fill-opacity:1;fill-rule:evenodd;stroke:#161616;stroke-width:1.00000003pt;stroke-opacity:1"
         transform="matrix(-0.4,0,0,-0.4,-4,0)"
         inkscape:connector-curvature="0" />
    </marker>
    <marker
       inkscape:stockid="Arrow2Mstart"
       orient="auto"
       refY="0"
       refX="0"
       id="Arrow2Mstart"
       style="overflow:visible"
       inkscape:isstock="true">
      <path
         id="path851"
         style="fill:#ffffff;fill-opacity:1;fill-rule:evenodd;stroke:#161616;stroke-width:0.625;stroke-linejoin:round;stroke-opacity:1"
         d="M 8.7185878,4.0337352 -2.2072895,0.01601326 8.7185884,-4.0017078 c -1.7454984,2.3720609 -1.7354408,5.6174519 -6e-7,8.035443 z"
         transform="scale(0.6)"
         inkscape:connector-curvature="0" />
    </marker>
    <marker
       inkscape:stockid="Arrow2Mend"
       orient="auto"
       refY="0"
       refX="0"
       id="Arrow2Mend"
       style="overflow:visible"
       inkscape:isstock="true">
      <path
         id="path854"
         style="fill:#ffffff;fill-opacity:1;fill-rule:evenodd;stroke:#161616;stroke-width:0.625;stroke-linejoin:round;stroke-opacity:1"
         d="M 8.7185878,4.0337352 -2.2072895,0.01601326 8.7185884,-4.0017078 c -1.7454984,2.3720609 -1.7354408,5.6174519 -6e-7,8.035443 z"
         transform="scale(-0.6)"
         inkscape:connector-curvature="0" />
    </marker>
    <marker
       inkscape:stockid="Arrow2Mstart"
       orient="auto"
       refY="0"
       refX="0"
       id="Arrow2Mstart-2"
       style="overflow:visible"
       inkscape:isstock="true">
      <path
         id="path851-6"
         style="fill:#000000;fill-opacity:1;fill-rule:evenodd;stroke:#000000;stroke-width:0.625;stroke-linejoin:round;stroke-opacity:1"
         d="M 8.7185878,4.0337352 -2.2072895,0.01601326 8.7185884,-4.0017078 c -1.7454984,2.3720609 -1.7354408,5.6174519 -6e-7,8.035443 z"
         transform="scale(0.6)"
         inkscape:connector-curvature="0" />
    </marker>
    <marker
       inkscape:stockid="Arrow2Mend"
       orient="auto"
       refY="0"
       refX="0"
       id="Arrow2Mend-0"
       style="overflow:visible"
       inkscape:isstock="true">
      <path
         id="path854-4"
         style="fill:#ffffff;fill-opacity:1;fill-rule:evenodd;stroke:#161616;stroke-width:0.625;stroke-linejoin:round;stroke-opacity:1"
         d="M 8.7185878,4.0337352 -2.2072895,0.01601326 8.7185884,-4.0017078 c -1.7454984,2.3720609 -1.7354408,5.6174519 -6e-7,8.035443 z"
         transform="scale(-0.6)"
         inkscape:connector-curvature="0" />
    </marker>
    <marker
       inkscape:stockid="Arrow2Mstart"
       orient="auto"
       refY="0"
       refX="0"
       id="Arrow2Mstart-23"
       style="overflow:visible"
       inkscape:isstock="true">
      <path
         id="path851-62"
         style="fill:#000000;fill-opacity:1;fill-rule:evenodd;stroke:#000000;stroke-width:0.625;stroke-linejoin:round;stroke-opacity:1"
         d="M 8.7185878,4.0337352 -2.2072895,0.01601326 8.7185884,-4.0017078 c -1.7454984,2.3720609 -1.7354408,5.6174519 -6e-7,8.035443 z"
         transform="scale(0.6)"
         inkscape:connector-curvature="0" />
    </marker>
  </defs>
  <sodipodi:namedview
     id="base"
     pagecolor="#ffffff"
     bordercolor="#666666"
     borderopacity="1.0"
     inkscape:pageopacity="0.0"
     inkscape:pageshadow="2"
     inkscape:zoom="2.3011788"
     inkscape:cx="159.43305"
     inkscape:cy="74.766131"
     inkscape:document-units="mm"
     inkscape:current-layer="layer3"
     showgrid="false"
     inkscape:window-width="1920"
     inkscape:window-height="1046"
     inkscape:window-x="-11"
     inkscape:window-y="-11"
     inkscape:window-maximized="1"
     inkscape:snap-global="false" />
  <metadata
     id="metadata5">
    <rdf:RDF>
      <cc:Work
         rdf:about="">
        <dc:format>image/svg+xml</dc:format>
        <dc:type
           rdf:resource="http://purl.org/dc/dcmitype/StillImage" />
        <dc:title></dc:title>
      </cc:Work>
    </rdf:RDF>
  </metadata>
  <g
     inkscape:label="Layer 1"
     inkscape:groupmode="layer"
     id="layer1"
     transform="translate(0,-259)"
     style="display:inline">
    <g
       aria-label="IR"
       style="font-style:normal;font-variant:normal;font-weight:normal;font-stretch:normal;font-size:2.11666679px;line-height:1.25;font-family:'latin modern math';-inkscape-font-specification:'latin modern math';letter-spacing:0px;word-spacing:0px;fill:#000000;fill-opacity:1;stroke:none;stroke-width:0.10599956"
       id="g7005"
       transform="matrix(2.4960798,0,0,2.4960798,18.460496,-415.34108)" />
    <path
       sodipodi:nodetypes="ccc"
       style="fill:none;stroke:#000000;stroke-width:0.22819075;stroke-linecap:butt;stroke-linejoin:miter;stroke-miterlimit:4;stroke-dasharray:none;stroke-opacity:1"
       d="M 4.2018807,260.79145 H 41.296436 v 2.66381"
       id="path6286"
       inkscape:connector-curvature="0" />
    <path
       inkscape:connector-curvature="0"
       id="path6288"
       d="M 34.60014,280.7552 H 47.908258"
       style="fill:none;stroke:#000000;stroke-width:0.32055119;stroke-linecap:butt;stroke-linejoin:miter;stroke-miterlimit:4;stroke-dasharray:none;stroke-opacity:1" />
    <rect
       ry="0.32520494"
       y="-280.75522"
       x="-47.908264"
       height="17.334547"
       width="13.306618"
       id="rect6186"
       style="opacity:1;fill:url(#pattern6188);fill-opacity:1;stroke:none;stroke-width:0.23455341;stroke-miterlimit:4;stroke-dasharray:none;stroke-dashoffset:0;stroke-opacity:1"
       rx="0.32520494"
       transform="scale(-1)" />
    <path
       inkscape:connector-curvature="0"
       id="path6290"
       d="M 34.601642,263.42065 H 47.906756"
       style="fill:none;stroke:#000000;stroke-width:0.32055119;stroke-linecap:butt;stroke-linejoin:miter;stroke-miterlimit:4;stroke-dasharray:none;stroke-opacity:1" />
    <rect
       style="opacity:1;fill:#ffffff;fill-opacity:1;stroke:none;stroke-width:0.25999999;stroke-miterlimit:4;stroke-dasharray:none;stroke-dashoffset:0;stroke-opacity:1;"
       id="rect6897"
       width="6.8644462"
       height="4.6972113"
       x="36.341652"
       y="285.78043"
       ry="0.17797221"
       rx="0.98327172"
       transform="matrix(0.33073735,0,0,1.8272775,28.218964,-257.20257)" />
    <path
       sodipodi:nodetypes="ccc"
       inkscape:connector-curvature="0"
       id="path6296"
       d="M 4.2064276,295.51662 H 41.010182 v -14.83184"
       style="fill:none;stroke:#000000;stroke-width:0.23600091;stroke-linecap:butt;stroke-linejoin:miter;stroke-miterlimit:4;stroke-dasharray:none;stroke-opacity:1" />
    <path
       sodipodi:nodetypes="cc"
       inkscape:connector-curvature="0"
       id="path3347"
       d="m 19.048954,260.80243 v 2.71105"
       style="fill:none;stroke:#000000;stroke-width:0.29217154px;stroke-linecap:butt;stroke-linejoin:miter;stroke-opacity:1" />
    <circle
       r="0.66382128"
       cy="295.21851"
       cx="3.867559"
       id="path3349"
       style="opacity:1;fill:#ffffff;fill-opacity:1;stroke:#000000;stroke-width:0.1;stroke-miterlimit:4;stroke-dasharray:none;stroke-dashoffset:0;stroke-opacity:1" />
    <circle
       style="opacity:1;fill:#ffffff;fill-opacity:1;stroke:#000000;stroke-width:0.1;stroke-miterlimit:4;stroke-dasharray:none;stroke-dashoffset:0;stroke-opacity:1"
       id="circle3351"
       cx="3.867559"
       cy="260.71851"
       r="0.66382128" />
    <circle
       style="opacity:1;fill:#000000;fill-opacity:1;stroke:#000000;stroke-width:0.1;stroke-miterlimit:4;stroke-dasharray:none;stroke-dashoffset:0;stroke-opacity:1"
       id="circle3467"
       cx="18.967648"
       cy="295.50378"
       r="0.44151631" />
    <circle
       r="0.44151631"
       cy="260.71851"
       cx="19.048948"
       id="circle3469"
       style="opacity:1;fill:#000000;fill-opacity:1;stroke:#000000;stroke-width:0.1;stroke-miterlimit:4;stroke-dasharray:none;stroke-dashoffset:0;stroke-opacity:1" />
    <path
       inkscape:connector-curvature="0"
       id="path3471"
       d="m 17.304818,283.42315 v 8.96852"
       style="fill:none;stroke:#000000;stroke-width:0.15000002;stroke-linecap:butt;stroke-linejoin:miter;stroke-miterlimit:4;stroke-dasharray:none;stroke-opacity:1;marker-end:url(#marker3474)" />
    <path
       style="fill:none;stroke:#000000;stroke-width:0.34999999;stroke-linecap:butt;stroke-linejoin:miter;stroke-miterlimit:4;stroke-dasharray:none;stroke-opacity:1;marker-end:url(#marker3606)"
       d="m 41.365034,273.26336 v -7.64229"
       id="path3596"
       inkscape:connector-curvature="0" />
    <path
       style="fill:none;stroke:#000000;stroke-width:0.29652011px;stroke-linecap:butt;stroke-linejoin:miter;stroke-opacity:1"
       d="m 19.048954,280.87052 v 14.58102"
       id="path4684"
       inkscape:connector-curvature="0"
       sodipodi:nodetypes="cc" />
    <path
       style="fill:none;stroke:#000000;stroke-width:0.32055119;stroke-linecap:butt;stroke-linejoin:miter;stroke-miterlimit:4;stroke-dasharray:none;stroke-opacity:1"
       d="M 12.904293,280.7552 H 26.212411"
       id="path4713"
       inkscape:connector-curvature="0" />
    <rect
       style="opacity:1;fill:url(#pattern8334);fill-opacity:1;stroke:none;stroke-width:0.23455341;stroke-miterlimit:4;stroke-dasharray:none;stroke-dashoffset:0;stroke-opacity:1"
       id="rect4717"
       width="13.306618"
       height="17.334547"
       x="12.905801"
       y="263.42065"
       ry="0.32520494"
       rx="0.32520494" />
    <path
       style="fill:none;stroke:#000000;stroke-width:0.32055119;stroke-linecap:butt;stroke-linejoin:miter;stroke-miterlimit:4;stroke-dasharray:none;stroke-opacity:1"
       d="M 12.905795,263.42065 H 26.210909"
       id="path4715"
       inkscape:connector-curvature="0" />
    <rect
       style="opacity:1;fill:#ffffff;fill-opacity:1;stroke:none;stroke-width:0.25999999;stroke-miterlimit:4;stroke-dasharray:none;stroke-dashoffset:0;stroke-opacity:1"
       id="rect6196"
       width="6.8644462"
       height="4.6972113"
       x="36.341652"
       y="285.78043"
       ry="0.56749159"
       rx="0.29889667"
       transform="matrix(1.0880172,0,0,0.57305633,-4.8443808,113.48396)" />
    <rect
       transform="matrix(0.4360048,0,0,1.0388132,18.812241,-21.771037)"
       rx="0.74587411"
       ry="0.31305403"
       y="285.78043"
       x="36.341652"
       height="4.6972113"
       width="6.8644462"
       id="rect6596"
       style="opacity:1;fill:#ffffff;fill-opacity:1;stroke:none;stroke-width:0.25999999;stroke-miterlimit:4;stroke-dasharray:none;stroke-dashoffset:0;stroke-opacity:1" />
    <path
       style="fill:none;stroke:#000000;stroke-width:0.32055119;stroke-linecap:butt;stroke-linejoin:miter;stroke-miterlimit:4;stroke-dasharray:none;stroke-opacity:1"
       d="M 12.904293,280.7552 H 26.212411"
       id="path6370"
       inkscape:connector-curvature="0" />
    <rect
       transform="matrix(0.40261541,0,0,1.0418205,-1.6775242,-22.637533)"
       rx="0.80773038"
       ry="0.31215036"
       y="285.78043"
       x="36.341652"
       height="4.6972113"
       width="6.8644462"
       id="rect6372"
       style="opacity:1;fill:#ffffff;fill-opacity:1;stroke:none;stroke-width:0.25999999;stroke-miterlimit:4;stroke-dasharray:none;stroke-dashoffset:0;stroke-opacity:1" />
    <rect
       style="opacity:1;fill:#ffffff;fill-opacity:1;stroke:none;stroke-width:0.25999999;stroke-miterlimit:4;stroke-dasharray:none;stroke-dashoffset:0;stroke-opacity:1"
       id="rect6598"
       width="6.8644462"
       height="4.6972113"
       x="36.341652"
       y="285.78043"
       ry="0.54051715"
       rx="0.27510235"
       transform="matrix(1.1821225,0,0,0.6016546,-30.079906,105.16266)" />
    <rect
       style="opacity:1;fill:#ffffff;fill-opacity:1;stroke:none;stroke-width:0.25999999;stroke-miterlimit:4;stroke-dasharray:none;stroke-dashoffset:0;stroke-opacity:1"
       id="rect6384"
       width="6.8644462"
       height="4.6972113"
       x="36.341652"
       y="285.78043"
       ry="0.38011736"
       rx="0.75703549"
       transform="matrix(0.42957656,0,0,0.8555375,28.678012,31.564475)" />
    <rect
       transform="matrix(0.42957656,0,0,0.8555375,6.9821675,31.564475)"
       rx="0.75703549"
       ry="0.38011736"
       y="285.78043"
       x="36.341652"
       height="4.6972113"
       width="6.8644462"
       id="rect6600"
       style="opacity:1;fill:#ffffff;fill-opacity:1;stroke:none;stroke-width:0.25999999;stroke-miterlimit:4;stroke-dasharray:none;stroke-dashoffset:0;stroke-opacity:1" />
    <rect
       transform="matrix(0.33073735,0,0,1.8272775,5.3277074,-257.03997)"
       rx="0.98327172"
       ry="0.17797221"
       y="285.78043"
       x="36.341652"
       height="4.6972113"
       width="6.8644462"
       id="rect6895"
       style="opacity:1;fill:#ffffff;fill-opacity:1;stroke:none;stroke-width:0.25999999;stroke-miterlimit:4;stroke-dasharray:none;stroke-dashoffset:0;stroke-opacity:1;" />
    <path
       inkscape:connector-curvature="0"
       id="path6631"
       d="m 18.610855,273.26336 v -7.64229"
       style="fill:none;stroke:#000000;stroke-width:0.34999999;stroke-linecap:butt;stroke-linejoin:miter;stroke-miterlimit:4;stroke-dasharray:none;stroke-opacity:1;marker-end:url(#marker6635)" />
    <path
       style="fill:none;stroke:#000000;stroke-width:0.15000002;stroke-linecap:butt;stroke-linejoin:miter;stroke-miterlimit:4;stroke-dasharray:none;stroke-opacity:1;marker-end:url(#marker7009)"
       d="m 39.997548,283.82965 v 8.96852"
       id="path6999"
       inkscape:connector-curvature="0" />
    <path
       inkscape:connector-curvature="0"
       id="path7713"
       d="m 30.482535,263.34173 v 17.37392"
       style="fill:none;stroke:#000000;stroke-width:0.15000001;stroke-linecap:butt;stroke-linejoin:miter;stroke-miterlimit:4;stroke-dasharray:none;stroke-opacity:1;marker-start:url(#Arrow2Mstart-2);marker-end:url(#marker7717)" />
  </g>
  <g
     inkscape:groupmode="layer"
     id="layer3"
     inkscape:label="yellow"
     style="display:none">
    <rect
       style="display:inline;opacity:1;fill:#ffff00;fill-opacity:1;stroke:none;stroke-width:0.34999999;stroke-miterlimit:4;stroke-dasharray:none;stroke-dashoffset:0;stroke-opacity:1"
       id="rect8547"
       width="37.154663"
       height="17.317162"
       x="12.235835"
       y="4.9916973"
       rx="0.32520467"
       ry="0.32520467" />
  </g>
  <g
     inkscape:groupmode="layer"
     id="layer2"
     inkscape:label="labels"
     style="display:inline">
    <g
       aria-label="+"
       transform="translate(0,-259)"
       style="font-style:normal;font-variant:normal;font-weight:normal;font-stretch:normal;font-size:10.56673717px;line-height:1.25;font-family:'Latin Modern Math';-inkscape-font-specification:'Latin Modern Math';letter-spacing:0px;word-spacing:0px;fill:#000000;fill-opacity:1;stroke:none;stroke-width:0.52916664"
       id="text6302">
      <path
         d="m 3.9831119,264.95261 v 1.23829 H 3.6778391 v -1.23829 H 2.5061935 v -0.28593 h 1.1716456 v -1.23829 h 0.3052728 v 1.23829 h 1.1716457 v 0.28593 z"
         style="font-size:4.40280771px;stroke-width:0.52916664"
         id="path8544" />
    </g>
    <g
       aria-label="-"
       transform="translate(0,-259)"
       style="font-style:normal;font-variant:normal;font-weight:normal;font-stretch:normal;font-size:10.56673717px;line-height:1.25;font-family:'Latin Modern Math';-inkscape-font-specification:'Latin Modern Math';letter-spacing:0px;word-spacing:0px;fill:#000000;fill-opacity:1;stroke:none;stroke-width:0.52916664"
       id="text6306">
      <path
         d="M 4.3292316,292.43085 H 3.3317205 v -0.33322 h 0.9975111 z"
         style="font-size:4.40280771px;stroke-width:0.52916664"
         id="path8541" />
    </g>
    <g
       transform="matrix(2.4960798,0,0,2.4960798,-13.785829,-668.34345)"
       id="text3550"
       style="font-style:normal;font-variant:normal;font-weight:normal;font-stretch:normal;font-size:2.11666679px;line-height:1.25;font-family:'latin modern math';-inkscape-font-specification:'latin modern math';letter-spacing:0px;word-spacing:0px;fill:#000000;fill-opacity:1;stroke:none;stroke-width:0.10599956"
       aria-label="IR">
      <path
         inkscape:connector-curvature="0"
         id="path3844"
         style="font-style:italic;stroke-width:0.10599956"
         d="m 11.057248,279.71699 q -0.01344,0.0693 -0.0155,0.10129 -0.0021,0.032 0.0052,0.0506 0.0072,0.0186 0.02584,0.031 0.0186,0.0124 0.06408,0.0248 l -0.01033,0.0506 h -0.436149 l 0.01033,-0.0506 q 0.06718,-0.0165 0.09302,-0.0362 0.02584,-0.0207 0.03927,-0.0579 0.01447,-0.0372 0.02997,-0.11369 l 0.1788,-0.894 q 0.01447,-0.0713 0.0155,-0.10336 0.001,-0.0331 -0.0072,-0.0506 -0.0083,-0.0186 -0.02584,-0.0289 -0.01654,-0.0114 -0.06201,-0.0248 l 0.01033,-0.0506 h 0.436149 l -0.01033,0.0506 q -0.04754,0.0114 -0.07028,0.0227 -0.0217,0.0114 -0.03721,0.0289 -0.0155,0.0165 -0.02791,0.0507 -0.0124,0.0341 -0.02687,0.10542 z" />
      <path
         inkscape:connector-curvature="0"
         id="path3846"
         style="font-style:italic;font-size:64.99999762%;baseline-shift:sub;stroke-width:0.10599956"
         d="m 11.617679,280.00033 -0.04568,0.22841 q -0.01008,0.0484 -0.01075,0.0705 -6.72e-4,0.0215 0.0047,0.0329 0.0054,0.0107 0.01612,0.0181 0.01142,0.007 0.04098,0.0154 l -0.0067,0.0329 h -0.283497 l 0.0067,-0.0329 q 0.04367,-0.0108 0.06046,-0.0235 0.0168,-0.0134 0.02553,-0.0376 0.0094,-0.0242 0.01948,-0.0739 l 0.116221,-0.5811 q 0.0094,-0.0464 0.01008,-0.0672 6.72e-4,-0.0215 -0.0047,-0.0329 -0.0054,-0.0121 -0.0168,-0.0188 -0.01075,-0.007 -0.04031,-0.0161 l 0.0067,-0.0329 h 0.332538 q 0.1572,0 0.223707,0.0571 0.06651,0.0571 0.04232,0.17735 -0.01814,0.092 -0.08196,0.15653 -0.06382,0.0645 -0.17198,0.10077 l -0.0013,0.005 q 0.03762,0.0168 0.06046,0.0484 0.02284,0.0309 0.04568,0.0967 l 0.03829,0.11018 q 0.01679,0.0484 0.03023,0.0739 0.01344,0.0255 0.03023,0.039 0.0168,0.0134 0.04837,0.0188 l -0.0067,0.0329 h -0.186087 q -0.01814,-0.0356 -0.03292,-0.0766 -0.01478,-0.041 -0.02821,-0.0833 l -0.03695,-0.11219 q -0.01679,-0.0511 -0.02889,-0.0752 -0.01209,-0.0242 -0.02486,-0.0336 -0.01276,-0.0101 -0.02821,-0.0134 -0.01545,-0.004 -0.04837,-0.004 z m 0.09136,-0.45682 -0.07994,0.39905 h 0.07591 q 0.05845,0 0.09607,-0.008 0.03829,-0.009 0.0739,-0.0323 0.03561,-0.0235 0.06248,-0.0652 0.02687,-0.0423 0.03896,-0.10346 0.01276,-0.0638 -6.72e-4,-0.10614 -0.01344,-0.0423 -0.05374,-0.0645 -0.03964,-0.0222 -0.114877,-0.0222 -0.06046,0 -0.09808,0.003 z" />
    </g>
    <g
       transform="matrix(2.4960798,0,0,2.4960798,-11.824567,-678.08504)"
       id="text3594"
       style="font-style:normal;font-variant:normal;font-weight:normal;font-stretch:normal;font-size:2.11666679px;line-height:1.25;font-family:'latin modern math';-inkscape-font-specification:'latin modern math';letter-spacing:0px;word-spacing:0px;fill:#000000;fill-opacity:1;stroke:none;stroke-width:0.10599956"
       aria-label="V">
      <path
         inkscape:connector-curvature="0"
         id="path3841"
         style="font-style:italic;stroke-width:0.10599956"
         d="m 6.0527543,278.84915 -0.010335,0.0506 q -0.048576,0.008 -0.076481,0.0207 -0.026872,0.0124 -0.044442,0.0351 -0.016536,0.0227 -0.023771,0.061 -0.00723,0.0351 -0.00723,0.0765 0,0.0403 0.00517,0.091 l 0.07338,0.84336 0.4661215,-0.84956 q 0.010335,-0.0196 0.020671,-0.0413 0.011369,-0.0217 0.019637,-0.0424 0.0093,-0.0207 0.013436,-0.0362 0.00517,-0.0155 0.00723,-0.0289 0.012402,-0.062 -0.010335,-0.0899 -0.022738,-0.0289 -0.088883,-0.0393 l 0.010335,-0.0506 h 0.4340821 l -0.010335,0.0506 q -0.044442,0.0103 -0.074414,0.03 -0.028939,0.0196 -0.063045,0.063 -0.034107,0.0434 -0.089917,0.13849 l -0.6573243,1.14515 H 5.8109085 l -0.1178222,-1.15238 q -0.0093,-0.0941 -0.022738,-0.13333 -0.012402,-0.0403 -0.033073,-0.0599 -0.020671,-0.0207 -0.062012,-0.031 l 0.010335,-0.0506 z" />
    </g>
    <g
       transform="matrix(2.4960798,0,0,2.4960798,-9.2590099,-668.62441)"
       id="text3602"
       style="font-style:normal;font-variant:normal;font-weight:normal;font-stretch:normal;font-size:2.11666679px;line-height:1.25;font-family:'latin modern math';-inkscape-font-specification:'latin modern math';letter-spacing:0px;word-spacing:0px;fill:#000000;fill-opacity:1;stroke:none;stroke-width:0.10599956"
       aria-label="IC">
      <path
         inkscape:connector-curvature="0"
         id="path3836"
         style="font-style:italic;stroke-width:0.10599956"
         d="m 18.201003,279.71699 q -0.01344,0.0693 -0.0155,0.10129 -0.0021,0.032 0.0052,0.0506 0.0072,0.0186 0.02584,0.031 0.0186,0.0124 0.06408,0.0248 l -0.01033,0.0506 H 17.8341 l 0.01034,-0.0506 q 0.06718,-0.0165 0.09302,-0.0362 0.02584,-0.0207 0.03927,-0.0579 0.01447,-0.0372 0.02997,-0.11369 l 0.1788,-0.894 q 0.01447,-0.0713 0.0155,-0.10336 0.001,-0.0331 -0.0072,-0.0506 -0.0083,-0.0186 -0.02584,-0.0289 -0.01654,-0.0114 -0.06201,-0.0248 l 0.01034,-0.0506 h 0.436149 l -0.01034,0.0506 q -0.04754,0.0114 -0.07028,0.0227 -0.0217,0.0114 -0.03721,0.0289 -0.0155,0.0165 -0.02791,0.0507 -0.0124,0.0341 -0.02687,0.10542 z" />
      <path
         inkscape:connector-curvature="0"
         id="path3838"
         style="font-style:italic;font-size:64.99999762%;baseline-shift:sub;stroke-width:0.10599956"
         d="m 19.274684,279.50119 -0.03695,0.18609 h -0.06651 q -0.0047,-0.0584 -0.02284,-0.0927 -0.01747,-0.0349 -0.0477,-0.0497 -0.02956,-0.0148 -0.07591,-0.0148 -0.0692,0 -0.133015,0.0464 -0.06315,0.0457 -0.112861,0.13839 -0.04904,0.092 -0.07524,0.22304 -0.0262,0.13167 -0.01948,0.22505 0.0074,0.0927 0.04703,0.1404 0.04031,0.047 0.112862,0.047 0.05509,0 0.09338,-0.0155 0.03829,-0.0161 0.06852,-0.0504 0.0309,-0.0343 0.06584,-0.10077 h 0.06651 l -0.03829,0.19213 q -0.06651,0.0168 -0.134359,0.0249 -0.06785,0.009 -0.147122,0.009 -0.170636,0 -0.235128,-0.11554 -0.06382,-0.11555 -0.01814,-0.34463 0.02889,-0.14377 0.09539,-0.25193 0.06718,-0.10816 0.166605,-0.16727 0.100097,-0.0591 0.222364,-0.0591 0.06113,0 0.111517,0.007 0.05038,0.006 0.113533,0.0235 z" />
    </g>
    <g
       aria-label="Jdisp"
       transform="translate(0,-259)"
       style="font-style:normal;font-variant:normal;font-weight:normal;font-stretch:normal;font-size:4.23333311px;line-height:1.25;font-family:'latin modern math';-inkscape-font-specification:'latin modern math';letter-spacing:0px;word-spacing:0px;fill:#000000;fill-opacity:1;stroke:none;stroke-width:0.26458332"
       id="text6192">
      <path
         d="m 36.195552,278.30411 q -0.05581,0.27905 -0.157097,0.45269 -0.09922,0.17363 -0.276985,0.29352 -0.177767,0.11989 -0.471289,0.20464 l -0.03307,-0.1819 q 0.19637,-0.0703 0.287321,-0.14263 0.09095,-0.0703 0.142627,-0.17777 0.05168,-0.10748 0.08682,-0.28938 l 0.465088,-2.32338 q 0.03514,-0.17983 0.03101,-0.24598 -0.0041,-0.0661 -0.03721,-0.10128 -0.03307,-0.0351 -0.152962,-0.0682 l 0.02067,-0.10128 h 0.872298 l -0.02067,0.10128 q -0.09508,0.0227 -0.14056,0.0455 -0.04341,0.0227 -0.07441,0.0579 -0.03101,0.0331 -0.05581,0.10128 -0.0248,0.0682 -0.05374,0.21084 z"
         style="font-style:italic;stroke-width:0.26458332"
         id="path8530" />
      <path
         d="m 37.950173,277.83086 q 0.02687,-0.12899 0.03493,-0.18004 0.0081,-0.0511 0.0054,-0.086 -0.0013,-0.0363 -0.01344,-0.0564 -0.01075,-0.0202 -0.03493,-0.0322 -0.02284,-0.0121 -0.08868,-0.0242 l 0.01344,-0.0699 0.327835,-0.0134 h 0.07927 l -0.310369,1.55587 q -0.0215,0.1048 -0.02687,0.15048 -0.004,0.0443 0.004,0.0712 0.0081,0.0269 0.03359,0.0443 0.02553,0.0161 0.09405,0.0309 l -0.01344,0.0699 -0.319774,0.0134 h -0.08062 l 0.06046,-0.22034 -0.01881,-0.005 q -0.103456,0.09 -0.174666,0.1357 -0.07121,0.0443 -0.147795,0.0712 -0.07524,0.0269 -0.155856,0.0269 -0.220348,0 -0.306338,-0.16661 -0.08599,-0.16795 -0.02284,-0.48369 0.04299,-0.22035 0.151826,-0.37352 0.10883,-0.15451 0.256625,-0.22975 0.147794,-0.0752 0.313056,-0.0752 0.08868,0 0.157199,0.0148 0.06987,0.0134 0.141077,0.0457 z m -0.131671,0.66373 q 0.02015,-0.1048 0.02284,-0.16795 0.004,-0.0632 -0.0094,-0.10614 -0.01344,-0.043 -0.04568,-0.0726 -0.0309,-0.0296 -0.0739,-0.043 -0.04165,-0.0134 -0.1048,-0.0134 -0.171979,0 -0.290214,0.13838 -0.116892,0.13705 -0.169292,0.39502 -0.05106,0.25797 -0.004,0.39233 0.04702,0.13436 0.197507,0.13436 0.05912,0 0.09943,-0.009 0.04165,-0.0108 0.0833,-0.0322 0.04165,-0.0228 0.08868,-0.0618 0.04703,-0.039 0.07121,-0.0712 0.02553,-0.0323 0.04299,-0.0739 0.01747,-0.0417 0.0309,-0.10749 z"
         style="font-size:64.99999762%;baseline-shift:sub"
         id="path8532" />
      <path
         d="m 39.025043,277.48018 -0.0524,0.26066 h -0.24722 l 0.0524,-0.26066 z m -0.733599,1.74532 q 0.05509,-0.0161 0.07927,-0.0282 0.02553,-0.0121 0.04434,-0.0336 0.02015,-0.0215 0.03762,-0.0658 0.01747,-0.0443 0.03628,-0.13839 l 0.118236,-0.5858 q 0.01612,-0.086 0.02418,-0.13839 0.0081,-0.0524 -0.0027,-0.0833 -0.0094,-0.0322 -0.03896,-0.047 -0.02956,-0.0161 -0.08733,-0.0269 l 0.01344,-0.0712 0.315743,-0.0121 h 0.08196 l -0.192133,0.96066 q -0.02284,0.11555 -0.0215,0.16123 0.0013,0.0443 0.02687,0.0685 0.02553,0.0229 0.09136,0.0403 l -0.01344,0.0658 h -0.526686 z"
         style="font-size:64.99999762%;baseline-shift:sub"
         id="path8534" />
      <path
         d="m 40.138876,278.30111 h -0.128984 q -0.01344,-0.0806 -0.04434,-0.12629 -0.0309,-0.047 -0.07793,-0.0658 -0.04703,-0.0188 -0.120923,-0.0188 -0.107487,0 -0.181384,0.0511 -0.0739,0.0497 -0.09136,0.13704 -0.01209,0.0618 0.0054,0.10212 0.01747,0.0403 0.06315,0.0752 0.04702,0.0349 0.171979,0.0927 0.124953,0.0591 0.189446,0.10884 0.06449,0.0497 0.09271,0.11554 0.02956,0.0658 0.01209,0.1572 -0.0215,0.10615 -0.07255,0.1787 -0.05106,0.0725 -0.126298,0.11824 -0.0739,0.0457 -0.169292,0.0658 -0.09405,0.0202 -0.201538,0.0202 -0.112861,0 -0.216317,-0.0175 -0.102113,-0.0161 -0.197507,-0.043 l 0.05643,-0.28081 h 0.131672 q 0.01075,0.12361 0.07121,0.18005 0.06046,0.0551 0.185415,0.0551 0.04837,0 0.09674,-0.009 0.04837,-0.0108 0.08868,-0.0336 0.04165,-0.0242 0.07121,-0.0645 0.02956,-0.0403 0.04165,-0.10077 0.01344,-0.0685 -0.0054,-0.11152 -0.01747,-0.043 -0.06718,-0.0779 -0.04971,-0.0363 -0.180041,-0.0967 -0.111518,-0.051 -0.17601,-0.0994 -0.06449,-0.0484 -0.09405,-0.11421 -0.02822,-0.0658 -0.01075,-0.15585 0.02284,-0.11018 0.09808,-0.19079 0.07658,-0.082 0.197507,-0.12496 0.122267,-0.043 0.274092,-0.043 0.08868,0 0.169292,0.009 0.08062,0.008 0.200195,0.0336 z"
         style="font-size:64.99999762%;baseline-shift:sub"
         id="path8536" />
      <path
         d="m 40.595696,279.25103 -0.05643,0.2835 q -0.01747,0.0873 -0.02015,0.13033 -0.0027,0.043 0.0081,0.0672 0.01075,0.0255 0.03628,0.0417 0.02553,0.0161 0.08733,0.0296 l -0.01344,0.0658 h -0.548183 l 0.01344,-0.0658 q 0.05106,-0.0134 0.0833,-0.0282 0.03359,-0.0134 0.05509,-0.0417 0.0215,-0.0269 0.03628,-0.0739 0.01478,-0.047 0.0309,-0.12495 l 0.229754,-1.1528 q 0.02015,-0.0967 0.02553,-0.13705 0.0054,-0.0417 0.0027,-0.0685 -0.0027,-0.0269 -0.01478,-0.0443 -0.01209,-0.0175 -0.03628,-0.0296 -0.02284,-0.0121 -0.08062,-0.0242 l 0.01344,-0.0712 0.318431,-0.0121 h 0.08196 l -0.0618,0.219 0.02015,0.005 q 0.09943,-0.0847 0.155856,-0.12227 0.05643,-0.039 0.112862,-0.0645 0.05643,-0.0255 0.106143,-0.0363 0.04971,-0.0108 0.103456,-0.0108 0.221692,0 0.307682,0.16661 0.08599,0.16526 0.0215,0.48503 -0.04434,0.22169 -0.14242,0.37352 -0.09674,0.15048 -0.240502,0.22706 -0.142421,0.0752 -0.319774,0.0752 -0.09943,0 -0.177353,-0.0175 -0.07658,-0.0161 -0.13839,-0.0443 z m 0.08868,-0.44338 q -0.02553,0.12898 -0.02419,0.19885 0.0027,0.0699 0.03493,0.1142 0.03225,0.043 0.0833,0.0645 0.0524,0.0215 0.143764,0.0215 0.162574,0 0.271404,-0.13436 0.108831,-0.1357 0.161231,-0.39904 0.1048,-0.52669 -0.202882,-0.52669 -0.07524,0 -0.134359,0.0242 -0.05912,0.0228 -0.12361,0.0752 -0.06315,0.0524 -0.09539,0.10211 -0.03225,0.0484 -0.04299,0.1048 z"
         style="font-size:64.99999762%;baseline-shift:sub"
         id="path8538" />
    </g>
    <g
       aria-label="Jcond"
       transform="translate(0,-259)"
       style="font-style:normal;font-variant:normal;font-weight:normal;font-stretch:normal;font-size:4.23333311px;line-height:1.25;font-family:'latin modern math';-inkscape-font-specification:'latin modern math';letter-spacing:0px;word-spacing:0px;fill:#000000;fill-opacity:1;stroke:none;stroke-width:0.26458332"
       id="text6378">
      <path
         d="m 14.499705,278.30411 q -0.05581,0.27905 -0.157096,0.45269 -0.09922,0.17363 -0.276986,0.29352 -0.177767,0.11989 -0.471289,0.20464 l -0.03307,-0.1819 q 0.196371,-0.0703 0.287321,-0.14263 0.09095,-0.0703 0.142627,-0.17777 0.05168,-0.10748 0.08682,-0.28938 l 0.465087,-2.32338 q 0.03514,-0.17983 0.03101,-0.24598 -0.0041,-0.0661 -0.03721,-0.10128 -0.03307,-0.0351 -0.152962,-0.0682 l 0.02067,-0.10128 h 0.872298 l -0.02067,0.10128 q -0.09508,0.0227 -0.14056,0.0455 -0.04341,0.0227 -0.07441,0.0579 -0.03101,0.0331 -0.05581,0.10128 -0.02481,0.0682 -0.05374,0.21084 z"
         style="font-style:italic;stroke-width:0.26458332"
         id="path8519" />
      <path
         d="m 16.30807,278.03777 -0.05643,0.28081 h -0.170635 q -0.0054,-0.0873 -0.02956,-0.13704 -0.02284,-0.0511 -0.06315,-0.0712 -0.04031,-0.0202 -0.106143,-0.0202 -0.09405,0 -0.178697,0.0605 -0.08465,0.0605 -0.151825,0.18407 -0.06718,0.12361 -0.103457,0.30231 -0.02284,0.11421 -0.02553,0.2096 -0.0027,0.094 0.02284,0.16123 0.02553,0.0672 0.08196,0.1048 0.05777,0.0376 0.153169,0.0376 0.09271,0 0.180041,-0.0363 0.08733,-0.0363 0.190789,-0.12764 l 0.05912,0.0887 q -0.0833,0.0752 -0.143764,0.11689 -0.06046,0.0403 -0.126297,0.0685 -0.06449,0.0269 -0.126297,0.039 -0.06046,0.0134 -0.128985,0.0134 -0.253938,0 -0.354707,-0.16795 -0.100769,-0.16929 -0.03762,-0.48772 0.04031,-0.19886 0.146451,-0.35202 0.106143,-0.15452 0.257969,-0.23782 0.153168,-0.0833 0.330522,-0.0833 0.110174,0 0.200194,0.0134 0.09136,0.0121 0.180041,0.0403 z"
         style="font-size:64.99999762%;baseline-shift:sub"
         id="path8521" />
      <path
         d="m 16.850879,279.31284 q -0.279466,0 -0.393671,-0.16392 -0.114205,-0.16526 -0.04971,-0.48772 0.04434,-0.2217 0.151825,-0.37486 0.107487,-0.15317 0.256625,-0.22707 0.150482,-0.0752 0.322461,-0.0752 0.287528,0 0.401732,0.16795 0.114205,0.1666 0.05106,0.47966 -0.04434,0.22303 -0.149138,0.3762 -0.1048,0.15317 -0.255282,0.22975 -0.150482,0.0752 -0.335897,0.0752 z m -0.184071,-0.67986 q -0.05509,0.27678 0.0027,0.42592 0.05912,0.14779 0.223035,0.14779 0.09002,0 0.161231,-0.043 0.07255,-0.0443 0.126297,-0.11824 0.05509,-0.0739 0.09136,-0.17063 0.03762,-0.0981 0.05777,-0.20423 0.04031,-0.19751 0.02284,-0.32783 -0.01747,-0.13033 -0.08061,-0.19079 -0.06315,-0.0618 -0.159887,-0.0618 -0.162574,0 -0.278122,0.14108 -0.114205,0.14107 -0.166605,0.40173 z"
         style="font-size:64.99999762%;baseline-shift:sub"
         id="path8523" />
      <path
         d="m 19.040926,279.29134 h -0.529373 l 0.01344,-0.0658 q 0.05509,-0.0161 0.08061,-0.0282 0.02553,-0.0121 0.04434,-0.0336 0.02015,-0.0215 0.03762,-0.0658 0.01881,-0.0457 0.03628,-0.13704 l 0.07121,-0.35202 q 0.01881,-0.0941 0.02821,-0.17064 0.0094,-0.0766 0.0067,-0.12495 -0.0027,-0.0497 -0.01612,-0.0766 -0.01209,-0.0282 -0.03359,-0.047 -0.02015,-0.0202 -0.05106,-0.0309 -0.02956,-0.0121 -0.08196,-0.0121 -0.0524,0 -0.103456,0.0215 -0.05106,0.0202 -0.118236,0.0712 -0.06583,0.0511 -0.102112,0.10077 -0.03493,0.0497 -0.04703,0.1142 l -0.100769,0.50116 q -0.02284,0.11555 -0.0215,0.16123 0.0013,0.0443 0.02687,0.0685 0.02553,0.0229 0.09136,0.0403 l -0.01343,0.0658 h -0.526687 l 0.01344,-0.0658 q 0.05509,-0.0161 0.07927,-0.0282 0.02553,-0.0121 0.04434,-0.0336 0.02015,-0.0215 0.03762,-0.0658 0.01747,-0.0443 0.03628,-0.13839 l 0.118235,-0.5858 q 0.01612,-0.086 0.02418,-0.13839 0.0081,-0.0524 -0.0027,-0.0833 -0.0094,-0.0322 -0.03896,-0.047 -0.02956,-0.0161 -0.08733,-0.0269 l 0.01344,-0.0712 0.317087,-0.0121 h 0.08196 l -0.05912,0.219 0.01881,0.005 q 0.119579,-0.10077 0.188102,-0.14377 0.06987,-0.043 0.137046,-0.0658 0.06718,-0.0242 0.137046,-0.0242 0.07255,0 0.126297,0.0175 0.05374,0.0161 0.09002,0.0511 0.03762,0.0349 0.05509,0.0873 0.01881,0.051 0.01747,0.12361 0,0.0726 -0.02284,0.18407 l -0.100769,0.50653 q -0.01881,0.0927 -0.0215,0.13436 -0.0027,0.0416 0.0054,0.0645 0.0094,0.0228 0.0309,0.039 0.02284,0.0148 0.0833,0.0322 z"
         style="font-size:64.99999762%;baseline-shift:sub"
         id="path8525" />
      <path
         d="m 20.467816,277.83086 q 0.02687,-0.12899 0.03493,-0.18004 0.0081,-0.0511 0.0054,-0.086 -0.0013,-0.0363 -0.01344,-0.0564 -0.01075,-0.0202 -0.03493,-0.0322 -0.02284,-0.0121 -0.08868,-0.0242 l 0.01344,-0.0699 0.327835,-0.0134 h 0.07927 l -0.310368,1.55587 q -0.0215,0.1048 -0.02687,0.15048 -0.004,0.0443 0.004,0.0712 0.0081,0.0269 0.03359,0.0443 0.02553,0.0161 0.09405,0.0309 l -0.01344,0.0699 -0.319773,0.0134 h -0.08062 l 0.06046,-0.22034 -0.01881,-0.005 q -0.103457,0.09 -0.174667,0.1357 -0.07121,0.0443 -0.147794,0.0712 -0.07524,0.0269 -0.155856,0.0269 -0.220349,0 -0.306338,-0.16661 -0.08599,-0.16795 -0.02284,-0.48369 0.04299,-0.22035 0.151825,-0.37352 0.108831,-0.15451 0.256625,-0.22975 0.147795,-0.0752 0.313056,-0.0752 0.08868,0 0.1572,0.0148 0.06987,0.0134 0.141076,0.0457 z m -0.131672,0.66373 q 0.02015,-0.1048 0.02284,-0.16795 0.004,-0.0632 -0.0094,-0.10614 -0.01344,-0.043 -0.04568,-0.0726 -0.0309,-0.0296 -0.0739,-0.043 -0.04165,-0.0134 -0.1048,-0.0134 -0.171979,0 -0.290215,0.13838 -0.116892,0.13705 -0.169292,0.39502 -0.05106,0.25797 -0.004,0.39233 0.04703,0.13436 0.197508,0.13436 0.05912,0 0.09943,-0.009 0.04165,-0.0108 0.0833,-0.0322 0.04165,-0.0228 0.08868,-0.0618 0.04703,-0.039 0.07121,-0.0712 0.02553,-0.0323 0.04299,-0.0739 0.01747,-0.0417 0.0309,-0.10749 z"
         style="font-size:64.99999762%;baseline-shift:sub"
         id="path8527" />
    </g>
    <g
       aria-label="ε"
       transform="translate(0,-259)"
       style="font-style:normal;font-variant:normal;font-weight:normal;font-stretch:normal;font-size:4.23333311px;line-height:1.25;font-family:'latin modern math';-inkscape-font-specification:'latin modern math';letter-spacing:0px;word-spacing:0px;fill:#000000;fill-opacity:1;stroke:none;stroke-width:0.26458332"
       id="text6382">
      <path
         d="m 46.637973,278.54731 q -0.376205,0.33693 -0.870231,0.33693 -0.338998,0 -0.5271,-0.14056 -0.186035,-0.14263 -0.186035,-0.39688 0,-0.18603 0.132292,-0.33279 0.132291,-0.14676 0.380338,-0.21704 v -0.0207 q -0.444417,-0.11783 -0.444417,-0.47129 0,-0.20878 0.206705,-0.34107 0.208773,-0.13229 0.572575,-0.13229 0.26045,0 0.630453,0.11369 v 0.35553 h -0.21084 q -0.130225,-0.30385 -0.452686,-0.30385 -0.16123,0 -0.264583,0.0847 -0.103353,0.0848 -0.103353,0.23772 0,0.18396 0.124024,0.26871 0.124023,0.0827 0.434082,0.0827 h 0.117822 v 0.22324 h -0.186035 q -0.272852,0 -0.411345,0.0971 -0.138492,0.0951 -0.138492,0.28319 0,0.36587 0.448551,0.36587 0.338997,0 0.630452,-0.24185 z"
         style="stroke-width:0.26458332"
         id="path8516" />
    </g>
    <g
       aria-label="σ"
       transform="translate(-0.18423475,-258.54009)"
       style="font-style:normal;font-variant:normal;font-weight:normal;font-stretch:normal;font-size:4.23333311px;line-height:1.25;font-family:'latin modern math';-inkscape-font-specification:'latin modern math';letter-spacing:0px;word-spacing:0px;fill:#000000;fill-opacity:1;stroke:none;stroke-width:0.26458332"
       id="text6604">
      <path
         d="m 24.72301,277.14998 v 0.0165 q 0.440284,0.26045 0.440284,0.79996 0,0.42167 -0.254248,0.66972 -0.254248,0.24805 -0.673861,0.24805 -0.405143,0 -0.646989,-0.25632 -0.241846,-0.25631 -0.241846,-0.66972 0,-0.41548 0.1757,-0.66353 0.177767,-0.25011 0.446485,-0.33693 0.268717,-0.0868 0.665592,-0.0868 h 0.833024 v 0.27906 z m -0.26665,0.008 q -0.72347,0 -0.72347,0.80408 0,0.36174 0.134359,0.56017 0.134358,0.19844 0.37207,0.19844 0.539502,0 0.539502,-0.74207 0,-0.5085 -0.322461,-0.82062 z"
         style="stroke-width:0.26458332"
         id="path8513"
         inkscape:connector-curvature="0" />
    </g>
    <path
       style="opacity:1;fill:#ffffff;fill-opacity:1;stroke:none;stroke-width:0.17497972;stroke-miterlimit:4;stroke-dasharray:none;stroke-dashoffset:0;stroke-opacity:1"
       d="m 42.734497,9.0282422 h 1.960722 c 0.150799,0 0.272201,0.1232897 0.272201,0.2764349 v 3.5949339 c 0,0.153154 -0.121402,0.276444 -0.272201,0.276444 h -1.960722 c -0.1508,0 -0.272201,-0.12329 -0.272201,-0.276444 V 9.3046771 c 0,-0.1531452 0.121401,-0.2764349 0.272201,-0.2764349 z"
       id="rect6610"
       inkscape:connector-curvature="0" />
    <g
       aria-label="E"
       style="font-style:normal;font-variant:normal;font-weight:normal;font-stretch:normal;font-size:4.23333311px;line-height:1.25;font-family:'latin modern math';-inkscape-font-specification:'latin modern math';letter-spacing:0px;word-spacing:0px;fill:#000000;fill-opacity:1;stroke:none;stroke-width:0.26458332"
       id="text6608"
       transform="translate(-0.52916667)">
      <path
         d="m 45.143584,9.7938329 -0.124023,0.6242511 h -0.202572 q -0.0124,-0.101286 -0.03101,-0.177767 -0.01654,-0.07648 -0.04134,-0.128157 -0.0248,-0.05168 -0.06201,-0.08268 -0.03514,-0.031005 -0.09095,-0.041341 -0.05581,-0.012402 -0.136426,-0.012402 h -0.65319 l -0.214974,1.083138 h 0.44235 q 0.09095,0 0.146762,-0.0248 0.05788,-0.02687 0.103352,-0.08888 0.04754,-0.06201 0.103353,-0.194304 h 0.194304 l -0.157097,0.79375 H 44.22581 q -0.0041,-0.124023 -0.02687,-0.186035 -0.02274,-0.06408 -0.06615,-0.09095 -0.04341,-0.02687 -0.14056,-0.02687 h -0.44235 l -0.237711,1.192692 h 0.642854 q 0.101286,0 0.167432,-0.01654 0.06615,-0.0186 0.119889,-0.05994 0.05374,-0.04341 0.101286,-0.111621 0.04961,-0.06821 0.08888,-0.14056 0.03927,-0.07441 0.107487,-0.214974 h 0.204638 l -0.183968,0.725537 h -1.914095 l 0.02067,-0.101286 q 0.134359,-0.03307 0.186035,-0.07235 0.05168,-0.04134 0.07855,-0.115755 0.02894,-0.07441 0.05994,-0.227376 l 0.357601,-1.788005 q 0.02894,-0.142627 0.03101,-0.206705 0.0021,-0.06615 -0.01447,-0.101286 Q 43.349368,9.96541 43.314228,9.944739 43.281158,9.922001 43.190204,9.89513 l 0.02067,-0.1012858 z"
         style="font-style:italic;stroke-width:0.26458332"
         id="path8509"
         inkscape:connector-curvature="0" />
    </g>
    <path
       style="opacity:1;fill:#ffffff;fill-opacity:1;stroke:none;stroke-width:0.17497972;stroke-miterlimit:4;stroke-dasharray:none;stroke-dashoffset:0;stroke-opacity:1"
       d="m 19.504157,9.0282427 h 2.342522 c 0.180163,0 0.325204,0.1220814 0.325204,0.2737257 V 12.86167 c 0,0.151654 -0.145041,0.273735 -0.325204,0.273735 h -2.342522 c -0.180164,0 -0.325205,-0.122081 -0.325205,-0.273735 V 9.3019684 c 0,-0.1516443 0.145041,-0.2737257 0.325205,-0.2737257 z"
       id="rect6617"
       inkscape:connector-curvature="0" />
    <g
       aria-label="E"
       style="font-style:normal;font-variant:normal;font-weight:normal;font-stretch:normal;font-size:4.23333311px;line-height:1.25;font-family:'latin modern math';-inkscape-font-specification:'latin modern math';letter-spacing:0px;word-spacing:0px;fill:#000000;fill-opacity:1;stroke:none;stroke-width:0.26458332"
       id="text6621"
       transform="translate(-0.52916667)">
      <path
         d="m 22.389407,9.7938329 -0.124023,0.6242511 h -0.202572 q -0.0124,-0.101286 -0.03101,-0.177767 -0.01654,-0.07648 -0.04134,-0.128157 -0.02481,-0.05168 -0.06201,-0.08268 -0.03514,-0.031005 -0.09095,-0.041341 -0.05581,-0.012402 -0.136426,-0.012402 h -0.65319 l -0.214974,1.083138 h 0.44235 q 0.09095,0 0.146761,-0.0248 0.05788,-0.02687 0.103353,-0.08888 0.04754,-0.06201 0.103353,-0.194304 h 0.194304 l -0.157097,0.79375 h -0.194303 q -0.0041,-0.124023 -0.02687,-0.186035 -0.02274,-0.06408 -0.06615,-0.09095 -0.04341,-0.02687 -0.14056,-0.02687 h -0.44235 l -0.237711,1.192692 h 0.642854 q 0.101286,0 0.167432,-0.01654 0.06615,-0.0186 0.119889,-0.05994 0.05374,-0.04341 0.101286,-0.111621 0.04961,-0.06821 0.08888,-0.14056 0.03927,-0.07441 0.107487,-0.214974 h 0.204638 L 21.80649,12.61538 h -1.914095 l 0.02067,-0.101286 q 0.134358,-0.03307 0.186035,-0.07235 0.05168,-0.04134 0.07855,-0.115755 0.02894,-0.07441 0.05995,-0.227376 l 0.357601,-1.788005 q 0.02894,-0.142627 0.03101,-0.206705 0.0021,-0.06615 -0.01447,-0.101286 Q 20.595201,9.96541 20.560061,9.944739 20.526991,9.922001 20.436037,9.89513 l 0.02067,-0.1012858 z"
         style="font-style:italic;stroke-width:0.26458332"
         id="path8505"
         inkscape:connector-curvature="0" />
    </g>
    <g
       aria-label="d"
       transform="translate(0,-259)"
       style="font-style:normal;font-variant:normal;font-weight:normal;font-stretch:normal;font-size:4.23333311px;line-height:1.25;font-family:'latin modern math';-inkscape-font-specification:'latin modern math';letter-spacing:0px;word-spacing:0px;fill:#000000;fill-opacity:1;stroke:none;stroke-width:0.26458332"
       id="text8189">
      <path
         d="m 32.496592,271.64489 q 0.04134,-0.19843 0.05374,-0.27698 0.0124,-0.0786 0.0083,-0.13229 -0.0021,-0.0558 -0.02067,-0.0868 -0.01654,-0.031 -0.05374,-0.0496 -0.03514,-0.0186 -0.136426,-0.0372 l 0.02067,-0.10748 0.504362,-0.0207 h 0.121957 l -0.47749,2.39365 q -0.03307,0.16123 -0.04134,0.23151 -0.0062,0.0682 0.0062,0.10955 0.0124,0.0413 0.05168,0.0682 0.03927,0.0248 0.144694,0.0475 l -0.02067,0.10748 -0.491959,0.0207 h -0.124024 l 0.09302,-0.339 -0.02894,-0.008 q -0.159163,0.13849 -0.268717,0.20877 -0.109554,0.0682 -0.227377,0.10956 -0.115755,0.0413 -0.239778,0.0413 -0.338998,0 -0.471289,-0.25632 -0.132292,-0.25838 -0.03514,-0.74414 0.06615,-0.339 0.233577,-0.57464 0.167432,-0.23771 0.394808,-0.35347 0.227376,-0.11575 0.481625,-0.11575 0.136425,0 0.241845,0.0227 0.107487,0.0207 0.217041,0.0703 z m -0.202572,1.02113 q 0.03101,-0.16123 0.03514,-0.25838 0.0062,-0.0971 -0.01447,-0.1633 -0.02067,-0.0662 -0.07028,-0.11162 -0.04754,-0.0455 -0.113688,-0.0661 -0.06408,-0.0207 -0.161231,-0.0207 -0.264583,0 -0.446484,0.21291 -0.179834,0.21084 -0.260449,0.60771 -0.07855,0.39688 -0.0062,0.60359 0.07235,0.2067 0.303857,0.2067 0.09095,0 0.152962,-0.0145 0.06408,-0.0165 0.128158,-0.0496 0.06408,-0.0351 0.136426,-0.0951 0.07235,-0.06 0.109554,-0.10956 0.03927,-0.0496 0.06615,-0.11368 0.02687,-0.0641 0.04754,-0.16537 z"
         style="font-style:italic;stroke-width:0.26458332"
         id="path8502" />
    </g>
  </g>
</svg>
