<?xml version="1.0" encoding="UTF-8" standalone="no"?>
<!-- Created with Inkscape (http://www.inkscape.org/) -->

<svg
   xmlns:dc="http://purl.org/dc/elements/1.1/"
   xmlns:cc="http://creativecommons.org/ns#"
   xmlns:rdf="http://www.w3.org/1999/02/22-rdf-syntax-ns#"
   xmlns:svg="http://www.w3.org/2000/svg"
   xmlns="http://www.w3.org/2000/svg"
   xmlns:sodipodi="http://sodipodi.sourceforge.net/DTD/sodipodi-0.dtd"
   xmlns:inkscape="http://www.inkscape.org/namespaces/inkscape"
   width="50mm"
   height="28mm"
   viewBox="0 0 50 28"
   version="1.1"
   id="svg8"
   inkscape:version="0.92.3 (2405546, 2018-03-11)"
   sodipodi:docname="RC_lumped.svg">
  <defs
     id="defs2">
    <marker
       inkscape:isstock="true"
       style="overflow:visible"
       id="marker3606"
       refX="0"
       refY="0"
       orient="auto"
       inkscape:stockid="Arrow2Mend">
      <path
         transform="scale(-0.6)"
         d="M 8.7185878,4.0337352 -2.2072895,0.01601326 8.7185884,-4.0017078 c -1.7454984,2.3720609 -1.7354408,5.6174519 -6e-7,8.035443 z"
         style="fill:#000000;fill-opacity:1;fill-rule:evenodd;stroke:#000000;stroke-width:0.625;stroke-linejoin:round;stroke-opacity:1"
         id="path3604"
         inkscape:connector-curvature="0" />
    </marker>
    <marker
       inkscape:stockid="Arrow2Mend"
       orient="auto"
       refY="0"
       refX="0"
       id="marker3474"
       style="overflow:visible"
       inkscape:isstock="true"
       inkscape:collect="always">
      <path
         id="path902"
         style="fill:#000000;fill-opacity:1;fill-rule:evenodd;stroke:#000000;stroke-width:0.625;stroke-linejoin:round;stroke-opacity:1"
         d="M 8.7185878,4.0337352 -2.2072895,0.01601326 8.7185884,-4.0017078 c -1.7454984,2.3720609 -1.7354408,5.6174519 -6e-7,8.035443 z"
         transform="scale(-0.6)"
         inkscape:connector-curvature="0" />
    </marker>
    <marker
       inkscape:stockid="Arrow2Mend"
       orient="auto"
       refY="0"
       refX="0"
       id="marker6552"
       style="overflow:visible"
       inkscape:isstock="true">
      <path
         id="path6550"
         style="fill:#161616;fill-opacity:1;fill-rule:evenodd;stroke:#161616;stroke-width:0.625;stroke-linejoin:round;stroke-opacity:1"
         d="M 8.7185878,4.0337352 -2.2072895,0.01601326 8.7185884,-4.0017078 c -1.7454984,2.3720609 -1.7354408,5.6174519 -6e-7,8.035443 z"
         transform="scale(-0.6)"
         inkscape:connector-curvature="0" />
    </marker>
    <marker
       inkscape:stockid="Arrow2Mend"
       orient="auto"
       refY="0"
       refX="0"
       id="marker6482"
       style="overflow:visible"
       inkscape:isstock="true">
      <path
         id="path1179"
         style="fill:#ffffff;fill-opacity:1;fill-rule:evenodd;stroke:#161616;stroke-width:0.625;stroke-linejoin:round;stroke-opacity:1"
         d="M 8.7185878,4.0337352 -2.2072895,0.01601326 8.7185884,-4.0017078 c -1.7454984,2.3720609 -1.7354408,5.6174519 -6e-7,8.035443 z"
         transform="scale(-0.6)"
         inkscape:connector-curvature="0" />
    </marker>
    <marker
       inkscape:isstock="true"
       style="overflow:visible"
       id="marker6383"
       refX="0"
       refY="0"
       orient="auto"
       inkscape:stockid="Arrow2Mend">
      <path
         inkscape:connector-curvature="0"
         transform="scale(-0.6)"
         d="M 8.7185878,4.0337352 -2.2072895,0.01601326 8.7185884,-4.0017078 c -1.7454984,2.3720609 -1.7354408,5.6174519 -6e-7,8.035443 z"
         style="fill:#ffffff;fill-opacity:1;fill-rule:evenodd;stroke:#161616;stroke-width:0.625;stroke-linejoin:round;stroke-opacity:1"
         id="path6381" />
    </marker>
    <marker
       inkscape:stockid="Arrow1Mend"
       orient="auto"
       refY="0"
       refX="0"
       id="marker4509"
       style="overflow:visible"
       inkscape:isstock="true">
      <path
         id="path4507"
         d="M 0,0 5,-5 -12.5,0 5,5 Z"
         style="fill:#ffffff;fill-opacity:1;fill-rule:evenodd;stroke:#161616;stroke-width:1.00000003pt;stroke-opacity:1"
         transform="matrix(-0.4,0,0,-0.4,-4,0)"
         inkscape:connector-curvature="0" />
    </marker>
    <marker
       inkscape:stockid="Arrow2Mstart"
       orient="auto"
       refY="0"
       refX="0"
       id="Arrow2Mstart"
       style="overflow:visible"
       inkscape:isstock="true">
      <path
         id="path851"
         style="fill:#ffffff;fill-opacity:1;fill-rule:evenodd;stroke:#161616;stroke-width:0.625;stroke-linejoin:round;stroke-opacity:1"
         d="M 8.7185878,4.0337352 -2.2072895,0.01601326 8.7185884,-4.0017078 c -1.7454984,2.3720609 -1.7354408,5.6174519 -6e-7,8.035443 z"
         transform="scale(0.6)"
         inkscape:connector-curvature="0" />
    </marker>
    <marker
       inkscape:stockid="Arrow2Mend"
       orient="auto"
       refY="0"
       refX="0"
       id="Arrow2Mend"
       style="overflow:visible"
       inkscape:isstock="true">
      <path
         id="path854"
         style="fill:#ffffff;fill-opacity:1;fill-rule:evenodd;stroke:#161616;stroke-width:0.625;stroke-linejoin:round;stroke-opacity:1"
         d="M 8.7185878,4.0337352 -2.2072895,0.01601326 8.7185884,-4.0017078 c -1.7454984,2.3720609 -1.7354408,5.6174519 -6e-7,8.035443 z"
         transform="scale(-0.6)"
         inkscape:connector-curvature="0" />
    </marker>
    <marker
       inkscape:stockid="Arrow2Mstart"
       orient="auto"
       refY="0"
       refX="0"
       id="Arrow2Mstart-2"
       style="overflow:visible"
       inkscape:isstock="true">
      <path
         id="path851-6"
         style="fill:#000000;fill-opacity:1;fill-rule:evenodd;stroke:#000000;stroke-width:0.625;stroke-linejoin:round;stroke-opacity:1"
         d="M 8.7185878,4.0337352 -2.2072895,0.01601326 8.7185884,-4.0017078 c -1.7454984,2.3720609 -1.7354408,5.6174519 -6e-7,8.035443 z"
         transform="scale(0.6)"
         inkscape:connector-curvature="0" />
    </marker>
    <marker
       inkscape:stockid="Arrow2Mend"
       orient="auto"
       refY="0"
       refX="0"
       id="Arrow2Mend-0"
       style="overflow:visible"
       inkscape:isstock="true">
      <path
         id="path854-4"
         style="fill:#ffffff;fill-opacity:1;fill-rule:evenodd;stroke:#161616;stroke-width:0.625;stroke-linejoin:round;stroke-opacity:1"
         d="M 8.7185878,4.0337352 -2.2072895,0.01601326 8.7185884,-4.0017078 c -1.7454984,2.3720609 -1.7354408,5.6174519 -6e-7,8.035443 z"
         transform="scale(-0.6)"
         inkscape:connector-curvature="0" />
    </marker>
    <marker
       inkscape:stockid="Arrow2Mstart"
       orient="auto"
       refY="0"
       refX="0"
       id="Arrow2Mstart-23"
       style="overflow:visible"
       inkscape:isstock="true">
      <path
         id="path851-62"
         style="fill:#000000;fill-opacity:1;fill-rule:evenodd;stroke:#000000;stroke-width:0.625;stroke-linejoin:round;stroke-opacity:1"
         d="M 8.7185878,4.0337352 -2.2072895,0.01601326 8.7185884,-4.0017078 c -1.7454984,2.3720609 -1.7354408,5.6174519 -6e-7,8.035443 z"
         transform="scale(0.6)"
         inkscape:connector-curvature="0" />
    </marker>
  </defs>
  <sodipodi:namedview
     id="base"
     pagecolor="#ffffff"
     bordercolor="#666666"
     borderopacity="1.0"
     inkscape:pageopacity="0.0"
     inkscape:pageshadow="2"
     inkscape:zoom="3.2543582"
     inkscape:cx="83.030273"
     inkscape:cy="96.113801"
     inkscape:document-units="mm"
     inkscape:current-layer="g7064"
     showgrid="false"
     inkscape:window-width="1920"
     inkscape:window-height="1046"
     inkscape:window-x="-11"
     inkscape:window-y="-11"
     inkscape:window-maximized="1"
     inkscape:snap-global="false" />
  <metadata
     id="metadata5">
    <rdf:RDF>
      <cc:Work
         rdf:about="">
        <dc:format>image/svg+xml</dc:format>
        <dc:type
           rdf:resource="http://purl.org/dc/dcmitype/StillImage" />
        <dc:title></dc:title>
      </cc:Work>
    </rdf:RDF>
  </metadata>
  <g
     inkscape:label="Layer 1"
     inkscape:groupmode="layer"
     id="layer1"
     transform="translate(0,-269)">
    <g
       id="g7064"
       transform="matrix(2,0,0,2,-2.8777425,-294.12909)">
      <g
         id="g3874"
         transform="translate(-0.48888351,10.883149)">
        <path
           sodipodi:nodetypes="ccc"
           style="fill:none;stroke:#000000;stroke-width:0.12283602;stroke-linecap:butt;stroke-linejoin:miter;stroke-miterlimit:4;stroke-dasharray:none;stroke-opacity:1"
           d="M 3.9724902,271.87419 H 23.502033 v 5.03535"
           id="path6286"
           inkscape:connector-curvature="0" />
        <g
           style="stroke-width:0.80125648"
           id="g6294"
           transform="matrix(1.2480399,0,0,1.2480399,3.7244347,-80.983594)">
          <path
             style="fill:none;stroke:#000000;stroke-width:0.12018847;stroke-linecap:butt;stroke-linejoin:miter;stroke-miterlimit:4;stroke-dasharray:none;stroke-opacity:1"
             d="m 14.2462,287.77921 h 3.5076"
             id="path6288"
             inkscape:connector-curvature="0" />
          <path
             style="fill:none;stroke:#000000;stroke-width:0.12018847;stroke-linecap:butt;stroke-linejoin:miter;stroke-miterlimit:4;stroke-dasharray:none;stroke-opacity:1"
             d="m 14.246596,286.69375 h 3.506808"
             id="path6290"
             inkscape:connector-curvature="0" />
        </g>
        <path
           sodipodi:nodetypes="ccc"
           inkscape:connector-curvature="0"
           id="path6296"
           d="M 3.9748182,283.50999 H 23.571454 v -5.38744"
           style="fill:none;stroke:#000000;stroke-width:0.12704027;stroke-linecap:butt;stroke-linejoin:miter;stroke-miterlimit:4;stroke-dasharray:none;stroke-opacity:1" />
        <text
           xml:space="preserve"
           style="font-style:normal;font-variant:normal;font-weight:normal;font-stretch:normal;font-size:5.28336859px;line-height:1.25;font-family:'Latin Modern Math';-inkscape-font-specification:'Latin Modern Math';letter-spacing:0px;word-spacing:0px;fill:#000000;fill-opacity:1;stroke:none;stroke-width:0.26458332"
           x="3.0206921"
           y="274.50949"
           id="text6302"><tspan
             sodipodi:role="line"
             id="tspan6300"
             x="3.0206921"
             y="274.50949"
             style="font-size:2.20140386px;stroke-width:0.26458332">+</tspan></text>
        <text
           id="text6306"
           y="282.61703"
           x="3.4775267"
           style="font-style:normal;font-variant:normal;font-weight:normal;font-stretch:normal;font-size:5.28336859px;line-height:1.25;font-family:'Latin Modern Math';-inkscape-font-specification:'Latin Modern Math';letter-spacing:0px;word-spacing:0px;fill:#000000;fill-opacity:1;stroke:none;stroke-width:0.26458332"
           xml:space="preserve"><tspan
             style="font-size:2.20140386px;stroke-width:0.26458332"
             y="282.61703"
             x="3.4775267"
             id="tspan6304"
             sodipodi:role="line">-</tspan></text>
        <path
           inkscape:connector-curvature="0"
           id="path3347"
           d="m 14.098069,271.87652 v 11.69495"
           style="fill:none;stroke:#000000;stroke-width:0.13229167px;stroke-linecap:butt;stroke-linejoin:miter;stroke-opacity:1" />
        <rect
           transform="rotate(90)"
           style="opacity:1;fill:#ffffff;fill-opacity:1;stroke:#161616;stroke-width:0.131826;stroke-miterlimit:4;stroke-dasharray:none;stroke-dashoffset:0;stroke-opacity:1"
           id="rect6298"
           width="5.0450516"
           height="2.1751258"
           x="274.94986"
           y="-15.25531" />
        <circle
           r="0.33191064"
           cy="283.52823"
           cx="3.8615358"
           id="path3349"
           style="opacity:1;fill:#ffffff;fill-opacity:1;stroke:#000000;stroke-width:0.05;stroke-miterlimit:4;stroke-dasharray:none;stroke-dashoffset:0;stroke-opacity:1" />
        <circle
           style="opacity:1;fill:#ffffff;fill-opacity:1;stroke:#000000;stroke-width:0.05;stroke-miterlimit:4;stroke-dasharray:none;stroke-dashoffset:0;stroke-opacity:1"
           id="circle3351"
           cx="3.8615358"
           cy="271.83456"
           r="0.33191064" />
        <circle
           style="opacity:1;fill:#000000;fill-opacity:1;stroke:#000000;stroke-width:0.05;stroke-miterlimit:4;stroke-dasharray:none;stroke-dashoffset:0;stroke-opacity:1"
           id="circle3467"
           cx="14.098067"
           cy="283.52823"
           r="0.22075815" />
        <circle
           r="0.22075815"
           cy="271.83456"
           cx="14.098067"
           id="circle3469"
           style="opacity:1;fill:#000000;fill-opacity:1;stroke:#000000;stroke-width:0.05;stroke-miterlimit:4;stroke-dasharray:none;stroke-dashoffset:0;stroke-opacity:1" />
        <path
           inkscape:connector-curvature="0"
           id="path3471"
           d="m 12.089964,275.14107 v 4.48426"
           style="fill:none;stroke:#000000;stroke-width:0.07500001;stroke-linecap:butt;stroke-linejoin:miter;stroke-miterlimit:4;stroke-dasharray:none;stroke-opacity:1;marker-end:url(#marker3474)" />
        <g
           transform="matrix(1.2480399,0,0,1.2480399,-3.984527,-71.242228)"
           id="text3550"
           style="font-style:normal;font-variant:normal;font-weight:normal;font-stretch:normal;font-size:2.11666679px;line-height:1.25;font-family:'latin modern math';-inkscape-font-specification:'latin modern math';letter-spacing:0px;word-spacing:0px;fill:#000000;fill-opacity:1;stroke:none;stroke-width:0.10599956"
           aria-label="IR">
          <path
             inkscape:connector-curvature="0"
             id="path3844"
             style="font-style:italic;stroke-width:0.10599956"
             d="m 11.057248,279.71699 q -0.01344,0.0693 -0.0155,0.10129 -0.0021,0.032 0.0052,0.0506 0.0072,0.0186 0.02584,0.031 0.0186,0.0124 0.06408,0.0248 l -0.01033,0.0506 h -0.436149 l 0.01033,-0.0506 q 0.06718,-0.0165 0.09302,-0.0362 0.02584,-0.0207 0.03927,-0.0579 0.01447,-0.0372 0.02997,-0.11369 l 0.1788,-0.894 q 0.01447,-0.0713 0.0155,-0.10336 0.001,-0.0331 -0.0072,-0.0506 -0.0083,-0.0186 -0.02584,-0.0289 -0.01654,-0.0114 -0.06201,-0.0248 l 0.01033,-0.0506 h 0.436149 l -0.01033,0.0506 q -0.04754,0.0114 -0.07028,0.0227 -0.0217,0.0114 -0.03721,0.0289 -0.0155,0.0165 -0.02791,0.0507 -0.0124,0.0341 -0.02687,0.10542 z" />
          <path
             inkscape:connector-curvature="0"
             id="path3846"
             style="font-style:italic;font-size:64.99999762%;baseline-shift:sub;stroke-width:0.10599956"
             d="m 11.617679,280.00033 -0.04568,0.22841 q -0.01008,0.0484 -0.01075,0.0705 -6.72e-4,0.0215 0.0047,0.0329 0.0054,0.0107 0.01612,0.0181 0.01142,0.007 0.04098,0.0154 l -0.0067,0.0329 h -0.283497 l 0.0067,-0.0329 q 0.04367,-0.0108 0.06046,-0.0235 0.0168,-0.0134 0.02553,-0.0376 0.0094,-0.0242 0.01948,-0.0739 l 0.116221,-0.5811 q 0.0094,-0.0464 0.01008,-0.0672 6.72e-4,-0.0215 -0.0047,-0.0329 -0.0054,-0.0121 -0.0168,-0.0188 -0.01075,-0.007 -0.04031,-0.0161 l 0.0067,-0.0329 h 0.332538 q 0.1572,0 0.223707,0.0571 0.06651,0.0571 0.04232,0.17735 -0.01814,0.092 -0.08196,0.15653 -0.06382,0.0645 -0.17198,0.10077 l -0.0013,0.005 q 0.03762,0.0168 0.06046,0.0484 0.02284,0.0309 0.04568,0.0967 l 0.03829,0.11018 q 0.01679,0.0484 0.03023,0.0739 0.01344,0.0255 0.03023,0.039 0.0168,0.0134 0.04837,0.0188 l -0.0067,0.0329 h -0.186087 q -0.01814,-0.0356 -0.03292,-0.0766 -0.01478,-0.041 -0.02821,-0.0833 l -0.03695,-0.11219 q -0.01679,-0.0511 -0.02889,-0.0752 -0.01209,-0.0242 -0.02486,-0.0336 -0.01276,-0.0101 -0.02821,-0.0134 -0.01545,-0.004 -0.04837,-0.004 z m 0.09136,-0.45682 -0.07994,0.39905 h 0.07591 q 0.05845,0 0.09607,-0.008 0.03829,-0.009 0.0739,-0.0323 0.03561,-0.0235 0.06248,-0.0652 0.02687,-0.0423 0.03896,-0.10346 0.01276,-0.0638 -6.72e-4,-0.10614 -0.01344,-0.0423 -0.05374,-0.0645 -0.03964,-0.0222 -0.114877,-0.0222 -0.06046,0 -0.09808,0.003 z" />
        </g>
        <g
           transform="matrix(1.2480399,0,0,1.2480399,-3.984527,-71.242228)"
           id="text3594"
           style="font-style:normal;font-variant:normal;font-weight:normal;font-stretch:normal;font-size:2.11666679px;line-height:1.25;font-family:'latin modern math';-inkscape-font-specification:'latin modern math';letter-spacing:0px;word-spacing:0px;fill:#000000;fill-opacity:1;stroke:none;stroke-width:0.10599956"
           aria-label="V">
          <path
             inkscape:connector-curvature="0"
             id="path3841"
             style="font-style:italic;stroke-width:0.10599956"
             d="m 6.0527543,278.84915 -0.010335,0.0506 q -0.048576,0.008 -0.076481,0.0207 -0.026872,0.0124 -0.044442,0.0351 -0.016536,0.0227 -0.023771,0.061 -0.00723,0.0351 -0.00723,0.0765 0,0.0403 0.00517,0.091 l 0.07338,0.84336 0.4661215,-0.84956 q 0.010335,-0.0196 0.020671,-0.0413 0.011369,-0.0217 0.019637,-0.0424 0.0093,-0.0207 0.013436,-0.0362 0.00517,-0.0155 0.00723,-0.0289 0.012402,-0.062 -0.010335,-0.0899 -0.022738,-0.0289 -0.088883,-0.0393 l 0.010335,-0.0506 h 0.4340821 l -0.010335,0.0506 q -0.044442,0.0103 -0.074414,0.03 -0.028939,0.0196 -0.063045,0.063 -0.034107,0.0434 -0.089917,0.13849 l -0.6573243,1.14515 H 5.8109085 l -0.1178222,-1.15238 q -0.0093,-0.0941 -0.022738,-0.13333 -0.012402,-0.0403 -0.033073,-0.0599 -0.020671,-0.0207 -0.062012,-0.031 l 0.010335,-0.0506 z" />
        </g>
        <path
           style="fill:none;stroke:#000000;stroke-width:0.07500001;stroke-linecap:butt;stroke-linejoin:miter;stroke-miterlimit:4;stroke-dasharray:none;stroke-opacity:1;marker-end:url(#marker3606)"
           d="m 21.005638,275.14107 v 4.48426"
           id="path3596"
           inkscape:connector-curvature="0" />
        <g
           transform="matrix(1.2480399,0,0,1.2480399,-3.984527,-71.242228)"
           id="text3602"
           style="font-style:normal;font-variant:normal;font-weight:normal;font-stretch:normal;font-size:2.11666679px;line-height:1.25;font-family:'latin modern math';-inkscape-font-specification:'latin modern math';letter-spacing:0px;word-spacing:0px;fill:#000000;fill-opacity:1;stroke:none;stroke-width:0.10599956"
           aria-label="IC">
          <path
             inkscape:connector-curvature="0"
             id="path3836"
             style="font-style:italic;stroke-width:0.10599956"
             d="m 18.201003,279.71699 q -0.01344,0.0693 -0.0155,0.10129 -0.0021,0.032 0.0052,0.0506 0.0072,0.0186 0.02584,0.031 0.0186,0.0124 0.06408,0.0248 l -0.01033,0.0506 H 17.8341 l 0.01034,-0.0506 q 0.06718,-0.0165 0.09302,-0.0362 0.02584,-0.0207 0.03927,-0.0579 0.01447,-0.0372 0.02997,-0.11369 l 0.1788,-0.894 q 0.01447,-0.0713 0.0155,-0.10336 0.001,-0.0331 -0.0072,-0.0506 -0.0083,-0.0186 -0.02584,-0.0289 -0.01654,-0.0114 -0.06201,-0.0248 l 0.01034,-0.0506 h 0.436149 l -0.01034,0.0506 q -0.04754,0.0114 -0.07028,0.0227 -0.0217,0.0114 -0.03721,0.0289 -0.0155,0.0165 -0.02791,0.0507 -0.0124,0.0341 -0.02687,0.10542 z" />
          <path
             inkscape:connector-curvature="0"
             id="path3838"
             style="font-style:italic;font-size:64.99999762%;baseline-shift:sub;stroke-width:0.10599956"
             d="m 19.274684,279.50119 -0.03695,0.18609 h -0.06651 q -0.0047,-0.0584 -0.02284,-0.0927 -0.01747,-0.0349 -0.0477,-0.0497 -0.02956,-0.0148 -0.07591,-0.0148 -0.0692,0 -0.133015,0.0464 -0.06315,0.0457 -0.112861,0.13839 -0.04904,0.092 -0.07524,0.22304 -0.0262,0.13167 -0.01948,0.22505 0.0074,0.0927 0.04703,0.1404 0.04031,0.047 0.112862,0.047 0.05509,0 0.09338,-0.0155 0.03829,-0.0161 0.06852,-0.0504 0.0309,-0.0343 0.06584,-0.10077 h 0.06651 l -0.03829,0.19213 q -0.06651,0.0168 -0.134359,0.0249 -0.06785,0.009 -0.147122,0.009 -0.170636,0 -0.235128,-0.11554 -0.06382,-0.11555 -0.01814,-0.34463 0.02889,-0.14377 0.09539,-0.25193 0.06718,-0.10816 0.166605,-0.16727 0.100097,-0.0591 0.222364,-0.0591 0.06113,0 0.111517,0.007 0.05038,0.006 0.113533,0.0235 z" />
        </g>
      </g>
    </g>
  </g>
</svg>
